<?xml version="1.0" standalone="no"?>
<!DOCTYPE svg PUBLIC "-//W3C//DTD SVG 20010904//EN"
 "http://www.w3.org/TR/2001/REC-SVG-20010904/DTD/svg10.dtd">
<svg version="1.0" xmlns="http://www.w3.org/2000/svg"
 width="1024.000000pt" height="1024.000000pt" viewBox="0 0 1024.000000 1024.000000"
 preserveAspectRatio="xMidYMid meet">

<g transform="translate(0.000000,1024.000000) scale(0.100000,-0.100000)"
fill="#000000" stroke="none">
<path d="M5675 7511 c-27 -16 -101 -72 -162 -125 -187 -161 -389 -395 -683
-791 -521 -702 -721 -965 -731 -965 -7 0 -60 22 -118 49 -226 103 -430 167
-633 197 -152 22 -450 15 -586 -14 -446 -97 -795 -367 -938 -726 -62 -156 -82
-354 -49 -495 88 -370 495 -524 975 -370 90 29 267 118 369 186 238 158 634
529 851 797 58 71 117 143 132 160 l26 31 189 -127 c260 -176 418 -298 418
-323 0 -31 -126 -88 -279 -126 -136 -33 -176 -50 -176 -74 0 -22 24 -31 168
-60 328 -66 452 -154 516 -365 36 -118 32 -271 -23 -840 -11 -113 -27 -298
-36 -412 -24 -331 -20 -388 29 -388 40 0 77 57 222 342 210 412 327 596 484
762 83 88 226 216 240 216 9 0 42 -27 247 -201 451 -382 715 -545 1079 -665
238 -78 463 -110 611 -85 125 22 116 61 -14 61 -92 0 -249 25 -358 56 -189 54
-470 186 -671 315 -178 113 -491 353 -703 537 l-63 56 23 19 c43 35 239 128
344 163 128 43 263 65 585 99 413 43 649 89 857 169 398 152 646 394 707 688
20 97 20 139 0 236 -60 296 -302 476 -744 554 -99 17 -523 17 -645 0 -287 -41
-674 -153 -975 -282 -266 -114 -671 -327 -864 -455 l-29 -19 6 139 c9 220 47
382 262 1115 182 621 265 917 265 943 0 27 -24 47 -57 47 -10 0 -40 -13 -68
-29z m-95 -284 c0 -19 -102 -393 -154 -566 -25 -80 -94 -319 -155 -531 -210
-731 -223 -771 -292 -900 -44 -81 -75 -120 -95 -120 -8 0 -66 39 -131 86 -65
47 -209 147 -321 221 -128 84 -202 140 -200 149 4 18 655 899 819 1108 154
197 319 385 427 489 81 76 102 90 102 64z m2205 -1310 c267 -51 480 -179 560
-336 47 -93 61 -230 36 -341 -44 -191 -203 -367 -436 -483 -210 -104 -437
-155 -955 -212 -300 -33 -457 -58 -595 -95 -141 -38 -207 -64 -362 -144 -69
-37 -131 -66 -137 -66 -23 0 -416 354 -416 374 0 19 39 51 95 79 58 29 150 57
290 87 141 31 167 51 128 99 -14 17 -43 26 -138 41 -269 45 -416 100 -492 183
-24 26 -43 50 -43 55 0 20 35 45 177 126 696 395 1219 586 1773 650 81 9 438
-3 515 -17z m-4487 -157 c180 -23 428 -102 620 -199 45 -23 82 -47 82 -54 0
-18 -198 -266 -332 -414 -222 -246 -505 -482 -728 -606 -209 -116 -492 -173
-681 -137 -72 14 -167 60 -217 104 -162 147 -193 419 -77 673 45 97 84 153
182 254 146 151 317 257 527 325 61 19 148 41 195 49 106 16 318 19 429 5z
m1846 -657 c26 -55 102 -146 149 -180 23 -17 70 -45 105 -62 34 -17 62 -33 62
-35 0 -2 -26 -19 -57 -36 -111 -63 -199 -146 -257 -246 l-42 -72 -39 76 c-51
100 -128 176 -227 226 -43 21 -75 43 -72 47 2 5 37 25 77 46 86 46 181 132
234 213 21 33 41 60 44 60 3 0 13 -16 23 -37z m254 -619 c72 -56 367 -316 370
-327 1 -7 -41 -52 -94 -102 -187 -172 -300 -328 -519 -712 -111 -197 -145
-246 -145 -214 0 4 9 89 19 187 11 99 25 238 31 309 31 354 131 698 247 853
29 39 46 40 91 6z"/>
</g>
</svg>
