<?xml version="1.0" standalone="no"?>
<!DOCTYPE svg PUBLIC "-//W3C//DTD SVG 20010904//EN"
 "http://www.w3.org/TR/2001/REC-SVG-20010904/DTD/svg10.dtd">
<svg version="1.0" xmlns="http://www.w3.org/2000/svg"
 width="1024.000000pt" height="1024.000000pt" viewBox="0 0 1024.000000 1024.000000"
 preserveAspectRatio="xMidYMid meet">

<g transform="translate(0.000000,1024.000000) scale(0.100000,-0.100000)"
fill="#000000" stroke="none">
<path d="M6340 7812 c-174 -163 -473 -443 -665 -622 -193 -178 -395 -367 -450
-420 -55 -52 -275 -259 -489 -460 -214 -201 -556 -521 -760 -713 -204 -191
-372 -352 -374 -357 -3 -7 221 -10 648 -10 l651 0 -232 -457 c-128 -252 -288
-566 -357 -698 -69 -132 -210 -408 -314 -613 -104 -206 -225 -435 -269 -509
-43 -74 -79 -137 -79 -138 0 -2 84 83 187 188 104 106 294 300 423 432 129
132 386 395 570 585 184 190 689 706 1123 1148 l788 802 -595 0 c-394 0 -596
3 -596 10 0 15 217 447 342 680 61 113 171 320 246 460 74 140 187 354 252
475 151 284 271 515 268 514 -2 0 -145 -134 -318 -297z"/>
<path d="M4855 7993 c-692 -42 -1267 -126 -1970 -290 -132 -31 -250 -58 -263
-61 l-22 -4 2 -1587 3 -1586 23 -70 c48 -151 137 -300 271 -455 154 -178 687
-691 716 -689 6 1 58 93 117 205 l107 204 -57 53 c-427 397 -597 581 -666 723
-59 119 -56 50 -56 1501 0 733 3 1333 7 1333 3 0 90 20 192 44 339 82 824 162
1266 211 212 24 745 30 980 12 l180 -14 217 209 c120 115 212 211 205 213 -24
8 -469 36 -712 45 -236 9 -426 10 -540 3z"/>
<path d="M6655 7602 c-64 -112 -114 -207 -111 -209 4 -5 571 -123 589 -123 4
0 7 -597 7 -1327 0 -1471 3 -1392 -66 -1524 -53 -100 -172 -238 -413 -480
-438 -438 -1025 -932 -1483 -1249 l-77 -53 -88 63 c-136 99 -384 288 -528 404
l-130 105 -165 -165 -165 -165 30 -25 c182 -152 648 -506 892 -678 l153 -107
77 52 c317 213 656 468 1013 763 447 370 1006 918 1200 1174 67 89 146 243
173 339 l22 78 5 1578 c3 867 4 1577 2 1577 -1 0 -89 20 -195 44 -161 37 -394
87 -584 125 l-42 8 -116 -205z"/>
</g>
</svg>
